<svg xmlns="http://www.w3.org/2000/svg" width="311" height="114" viewBox="0 0 311 114">
  <g id="Group_2" data-name="Group 2" transform="translate(-84 -270)">
    <rect id="Rectangle_2" data-name="Rectangle 2" width="311" height="114" rx="12" transform="translate(84 270)" fill="rgba(36,164,255,0.9)"/>
    <g id="Polygon_1" data-name="Polygon 1" transform="translate(312.561 305.2) rotate(-42)" fill="none">
      <path d="M19.649,19.441a5,5,0,0,1,9.7,0l2.381,9.542a5,5,0,0,0,.829,1.76l7.773,10.525a5,5,0,0,1-5.376,7.784l-9.106-2.561a5,5,0,0,0-2.707,0l-9.106,2.561a5,5,0,0,1-5.376-7.784l7.773-10.525a5,5,0,0,0,.829-1.76Z" stroke="none"/>
      <path d="M 24.49999046325684 18.6512336730957 C 24.03026962280273 18.6512336730957 22.9008903503418 18.79893493652344 22.55949974060059 20.1670036315918 L 20.1783504486084 29.70913314819336 C 19.92344093322754 30.73068618774414 19.47702980041504 31.67807388305664 18.85153961181641 32.52498626708984 L 11.07822036743164 43.04994201660156 C 10.44065856933594 43.91318511962891 10.68478012084961 44.71451568603516 10.88705062866211 45.1153450012207 C 11.16400909423828 45.66420745849609 11.76704025268555 46.25069427490234 12.62892913818359 46.25069427490234 C 12.82089996337891 46.25069427490234 13.02260971069336 46.22134399414062 13.22845840454102 46.1634521484375 L 22.33418083190918 43.60269546508789 C 23.74391746520996 43.20621490478516 25.25609970092773 43.20622634887695 26.66577911376953 43.60268402099609 L 35.77153015136719 46.16344451904297 C 35.97739028930664 46.22134399414062 36.17910003662109 46.25069427490234 36.37105941772461 46.25069427490234 C 37.23274993896484 46.25069427490234 37.83575057983398 45.66413497924805 38.11275100708008 45.11520385742188 C 38.31502914428711 44.7143440246582 38.55918884277344 43.91299438476562 37.92177963256836 43.04994201660156 L 30.14845085144043 32.52497482299805 C 29.52297019958496 31.67806625366211 29.07657051086426 30.73069381713867 28.8216495513916 29.70916366577148 L 26.44049072265625 20.1670036315918 C 26.09910011291504 18.79893493652344 24.9697093963623 18.6512336730957 24.49999046325684 18.6512336730957 M 24.4999942779541 15.6512336730957 C 26.61040687561035 15.6512336730957 28.7208194732666 16.91437530517578 29.35123062133789 19.44065475463867 L 31.73238945007324 28.98281478881836 C 31.89092063903809 29.61808395385742 32.17266845703125 30.21602630615234 32.56164932250977 30.74270629882812 L 40.33496856689453 41.26766204833984 C 43.16410827636719 45.09828186035156 39.54364776611328 50.34064483642578 34.95936965942383 49.05142593383789 L 25.85360908508301 46.49065399169922 C 24.9683723449707 46.24170684814453 24.0316219329834 46.24170684814453 23.1463794708252 46.49065399169922 L 14.04063034057617 49.05142593383789 C 9.456348419189453 50.34065246582031 5.835891723632812 45.09828567504883 8.665031433105469 41.26766204833984 L 16.43835067749023 30.74270629882812 C 16.82733154296875 30.21603393554688 17.10907936096191 29.61808395385742 17.26759910583496 28.98281478881836 L 19.64875984191895 19.44065475463867 C 20.2791690826416 16.91437530517578 22.38958168029785 15.6512336730957 24.4999942779541 15.6512336730957 Z" stroke="none" fill="rgba(211,236,255,0.55)"/>
    </g>
    <g id="Polygon_2" data-name="Polygon 2" transform="translate(226.451 335.884) rotate(11)" fill="none">
      <path d="M12.028,8.944a5,5,0,0,1,8.944,0l8.41,16.82A5,5,0,0,1,24.91,33H8.09a5,5,0,0,1-4.472-7.236Z" stroke="none"/>
      <path d="M 16.5 9.180334091186523 C 16.12834930419922 9.180334091186523 15.21006965637207 9.288064956665039 14.71113967895508 10.28591537475586 L 6.301309585571289 27.10557556152344 C 5.851230621337891 28.00573348999023 6.212600708007812 28.76625442504883 6.388870239257812 29.05145454406738 C 6.565130233764648 29.33665466308594 7.083749771118164 29.9999942779541 8.090169906616211 29.9999942779541 L 24.90983009338379 29.9999942779541 C 25.91625022888184 29.9999942779541 26.43486976623535 29.33665466308594 26.61112976074219 29.05145454406738 C 26.78739929199219 28.76625442504883 27.14876937866211 28.00573348999023 26.69869041442871 27.10557556152344 L 18.28886032104492 10.28592491149902 C 17.78993034362793 9.288064956665039 16.87165069580078 9.180334091186523 16.5 9.180334091186523 M 16.5 6.180335998535156 C 18.27541351318359 6.180335998535156 20.05082511901855 7.101650238037109 20.97214126586914 8.94427490234375 L 29.3819694519043 25.76393508911133 C 31.04421997070312 29.08843421936035 28.62673950195312 32.99999618530273 24.90983009338379 32.99999618530273 L 8.090169906616211 32.99999618530273 C 4.373260498046875 32.99999618530273 1.955780029296875 29.08843421936035 3.618030548095703 25.76393508911133 L 12.02786064147949 8.94427490234375 C 12.94917488098145 7.101650238037109 14.72458839416504 6.180335998535156 16.5 6.180335998535156 Z" stroke="none" fill="rgba(211,236,255,0.55)"/>
    </g>
    <g id="Ellipse_1" data-name="Ellipse 1" transform="translate(102 340)" fill="none" stroke="rgba(211,236,255,0.55)" stroke-width="2">
      <circle cx="13" cy="13" r="13" stroke="none"/>
      <circle cx="13" cy="13" r="12" fill="none"/>
    </g>
    <g id="Ellipse_2" data-name="Ellipse 2" transform="translate(165 290)" fill="none" stroke="rgba(211,236,255,0.55)" stroke-width="2">
      <circle cx="18" cy="18" r="18" stroke="none"/>
      <circle cx="18" cy="18" r="17" fill="none"/>
    </g>
  </g>
</svg>
