<svg xmlns="http://www.w3.org/2000/svg" width="312.027" height="122.001" viewBox="0 0 312.027 122.001">
  <g id="Group_1" data-name="Group 1" transform="translate(-84 -127.714)">
    <rect id="Rectangle_1" data-name="Rectangle 1" width="311" height="114" rx="12" transform="translate(84 132)" fill="rgba(92,69,254,0.9)"/>
    <path id="Path_1" data-name="Path 1" d="M317.189,132s4.75,29.04-8.265,44.47-43.8,17.248-43.8,17.248" transform="translate(0 1)" fill="none" stroke="#8172ee" stroke-width="7"/>
    <path id="Path_4" data-name="Path 4" d="M317.189,132s4.75,29.04-8.265,44.47-43.8,17.248-43.8,17.248" transform="matrix(-0.966, -0.259, 0.259, -0.966, 399.075, 401.43)" fill="none" stroke="#8172ee" stroke-width="7"/>
    <path id="Path_2" data-name="Path 2" d="M364.568,189s8.656,13.475,6.57,27.59-14.914,28.869-14.914,28.869" transform="translate(113.014 -115.962) rotate(21)" fill="none" stroke="#8172ee" stroke-width="7"/>
    <path id="Path_3" data-name="Path 3" d="M84,182.459s32.6,45.026,61.362,57.97,64.131-18.086,64.131-18.086l27.534-22.819" transform="translate(9 -3)" fill="none" stroke="#8172ee" stroke-width="7"/>
  </g>
</svg>
